<svg width="500" height="300" viewBox="0 0 873 365" fill="none" xmlns="http://www.w3.org/2000/svg">
<path d="M866.361 1.49443e-05C870.028 1.50838e-05 873 2.58708 873 5.77838V43.3378C873 46.5291 870.028 49.1161 866.361 49.1161L473.567 49.1161C469.9 49.1161 466.928 46.529 466.928 43.3377V5.77836C466.928 2.58706 469.9 -1.39496e-07 473.567 0L866.361 1.49443e-05Z" fill="#D9D9D9"/>
<path d="M866.361 1.49443e-05C870.028 1.50838e-05 873 2.58708 873 5.77838V43.3378C873 46.5291 870.028 49.1161 866.361 49.1161L473.567 49.1161C469.9 49.1161 466.928 46.529 466.928 43.3377V5.77836C466.928 2.58706 469.9 -1.39496e-07 473.567 0L866.361 1.49443e-05Z" fill="#D9D9D9"/>
<path d="M866.361 104.011C870.028 104.011 873 106.598 873 109.789V147.348C873 150.54 870.028 153.127 866.361 153.127L473.567 153.127C469.9 153.127 466.928 150.54 466.928 147.348V109.789C466.928 106.598 469.9 104.011 473.567 104.011L866.361 104.011Z" fill="#D9D9D9"/>
<path d="M866.361 208.021C870.028 208.021 873 210.608 873 213.799V251.359C873 254.55 870.028 257.137 866.361 257.137L473.567 257.137C469.9 257.137 466.928 254.55 466.928 251.359V213.799C466.928 210.608 469.9 208.021 473.567 208.021L866.361 208.021Z" fill="#D9D9D9"/>
<path d="M866.361 312.032C870.028 312.032 873 314.619 873 317.81V355.369C873 358.561 870.028 361.148 866.361 361.148H473.567C469.9 361.148 466.928 358.561 466.928 355.369V317.81C466.928 314.619 469.9 312.032 473.567 312.032L866.361 312.032Z" fill="#D9D9D9"/>
<path d="M0 5.77837C0 2.58707 2.97228 1.51969e-05 6.63878 1.51969e-05H49.7909C53.4574 1.51969e-05 56.4297 2.58708 56.4297 5.77838V359.222C56.4297 362.413 53.4574 365 49.7909 365H6.63878C2.97228 365 0 362.413 0 359.222V5.77837Z" fill="#D9D9D9"/>
<path d="M117.285 5.77837C117.285 2.58707 120.257 1.51969e-05 123.924 1.51969e-05H167.076C170.743 1.51969e-05 173.715 2.58708 173.715 5.77838V359.222C173.715 362.413 170.743 365 167.076 365H123.924C120.257 365 117.285 362.413 117.285 359.222V5.77837Z" fill="#D9D9D9"/>
<path d="M234.57 5.77837C234.57 2.58707 237.543 1.51969e-05 241.209 1.51969e-05H284.361C288.028 1.51969e-05 291 2.58708 291 5.77838V359.222C291 362.413 288.028 365 284.361 365H241.209C237.543 365 234.57 362.413 234.57 359.222V5.77837Z" fill="#D9D9D9"/>
<path d="M351.856 5.77837C351.856 2.58707 354.828 1.51969e-05 358.494 1.51969e-05H401.646C405.313 1.51969e-05 408.285 2.58708 408.285 5.77838V359.222C408.285 362.413 405.313 365 401.646 365H358.494C354.828 365 351.856 362.413 351.856 359.222V5.77837Z" fill="#D9D9D9"/>
</svg>
