<svg width="220" height="44" viewBox="0 0 220 44" fill="none" xmlns="http://www.w3.org/2000/svg">
<path fill-rule="evenodd" clip-rule="evenodd" d="M22 0C9.84974 0 0 9.84974 0 22C0 34.1503 9.84974 44 22 44H198C210.15 44 220 34.1503 220 22C220 9.84974 210.15 0 198 0H22ZM30.4692 7.27343C30.3085 6.83724 29.6915 6.83724 29.5308 7.27343L26.3669 15.861C26.2978 16.0488 26.1233 16.1772 25.9234 16.1875L17.0116 16.6447C16.557 16.668 16.3675 17.2372 16.7174 17.5284L23.6925 23.3322C23.8417 23.4563 23.9056 23.6556 23.8564 23.8433L21.5198 32.7559C21.4028 33.2021 21.9009 33.5552 22.2832 33.2971L29.7202 28.2764C29.8893 28.1622 30.1107 28.1622 30.2798 28.2764L37.7168 33.2971C38.0991 33.5552 38.5972 33.2021 38.4802 32.7559L36.1437 23.8433C36.0944 23.6556 36.1583 23.4563 36.3075 23.3322L43.2826 17.5284C43.6325 17.2372 43.443 16.668 42.9884 16.6447L34.0766 16.1875C33.8768 16.1772 33.7023 16.0488 33.6331 15.861L30.4692 7.27343ZM70.4692 7.27343C70.3085 6.83724 69.6915 6.83724 69.5308 7.27343L66.3669 15.861C66.2978 16.0488 66.1233 16.1772 65.9234 16.1875L57.0116 16.6447C56.557 16.668 56.3675 17.2372 56.7174 17.5284L63.6925 23.3322C63.8417 23.4563 63.9056 23.6556 63.8564 23.8433L61.5198 32.7559C61.4028 33.2021 61.9009 33.5552 62.2832 33.2971L69.7202 28.2764C69.8893 28.1622 70.1107 28.1622 70.2798 28.2764L77.7168 33.2971C78.0991 33.5552 78.5972 33.2021 78.4802 32.7559L76.1437 23.8433C76.0944 23.6556 76.1583 23.4563 76.3075 23.3322L83.2826 17.5284C83.6325 17.2372 83.443 16.668 82.9884 16.6447L74.0766 16.1875C73.8768 16.1772 73.7023 16.0488 73.6331 15.861L70.4692 7.27343ZM109.531 7.27343C109.692 6.83724 110.308 6.83724 110.469 7.27343L113.633 15.861C113.702 16.0488 113.877 16.1772 114.077 16.1875L122.988 16.6447C123.443 16.668 123.632 17.2372 123.283 17.5284L116.308 23.3322C116.158 23.4563 116.094 23.6556 116.144 23.8433L118.48 32.7559C118.597 33.2021 118.099 33.5552 117.717 33.2971L110.28 28.2764C110.111 28.1622 109.889 28.1622 109.72 28.2764L102.283 33.2971C101.901 33.5552 101.403 33.2021 101.52 32.7559L103.856 23.8433C103.906 23.6556 103.842 23.4563 103.693 23.3322L96.7174 17.5284C96.3675 17.2372 96.557 16.668 97.0116 16.6447L105.923 16.1875C106.123 16.1772 106.298 16.0488 106.367 15.861L109.531 7.27343ZM150.469 7.27343C150.308 6.83724 149.692 6.83724 149.531 7.27343L146.367 15.861C146.298 16.0488 146.123 16.1772 145.923 16.1875L137.012 16.6447C136.557 16.668 136.368 17.2372 136.717 17.5284L143.693 23.3322C143.842 23.4563 143.906 23.6556 143.856 23.8433L141.52 32.7559C141.403 33.2021 141.901 33.5552 142.283 33.2971L149.72 28.2764C149.889 28.1622 150.111 28.1622 150.28 28.2764L157.717 33.2971C158.099 33.5552 158.597 33.2021 158.48 32.7559L156.144 23.8433C156.094 23.6556 156.158 23.4563 156.308 23.3322L163.283 17.5284C163.632 17.2372 163.443 16.668 162.988 16.6447L154.077 16.1875C153.877 16.1772 153.702 16.0488 153.633 15.861L150.469 7.27343ZM189.531 7.27343C189.692 6.83724 190.308 6.83724 190.469 7.27343L193.633 15.861C193.702 16.0488 193.877 16.1772 194.077 16.1875L202.988 16.6447C203.443 16.668 203.633 17.2372 203.283 17.5284L196.308 23.3322C196.158 23.4563 196.094 23.6556 196.144 23.8433L198.48 32.7559C198.597 33.2021 198.099 33.5552 197.717 33.2971L190.28 28.2764C190.111 28.1622 189.889 28.1622 189.72 28.2764L182.283 33.2971C181.901 33.5552 181.403 33.2021 181.52 32.7559L183.856 23.8433C183.906 23.6556 183.842 23.4563 183.693 23.3322L176.717 17.5284C176.368 17.2372 176.557 16.668 177.012 16.6447L185.923 16.1875C186.123 16.1772 186.298 16.0488 186.367 15.861L189.531 7.27343Z" fill="#D9D9D9"/>
</svg>
